<?xml version="1.0" standalone="no"?>
<!DOCTYPE svg PUBLIC "-//W3C//DTD SVG 20010904//EN"
 "http://www.w3.org/TR/2001/REC-SVG-20010904/DTD/svg10.dtd">
<svg version="1.0" xmlns="http://www.w3.org/2000/svg"
 width="256.000000pt" height="256.000000pt" viewBox="0 0 256.000000 256.000000"
 preserveAspectRatio="xMidYMid meet">
<metadata>
Created by potrace 1.11, written by Peter Selinger 2001-2013
</metadata>
<g transform="translate(0.000000,256.000000) scale(0.100000,-0.100000)"
fill="#000000" stroke="none">
<path d="M0 1280 l0 -1280 1280 0 1280 0 0 1280 0 1280 -1280 0 -1280 0 0
-1280z m1361 854 c151 -76 95 -314 -74 -314 -98 0 -171 70 -171 164 0 131 128
209 245 150z m-611 -471 l0 -118 -185 -130 c-102 -71 -185 -133 -185 -136 0
-4 83 -66 185 -139 l185 -132 0 -114 c0 -63 -3 -114 -8 -114 -4 0 -129 85
-277 188 l-270 188 -3 119 -2 120 277 193 c152 105 278 192 280 192 2 0 3 -53
3 -117z m1420 -126 l205 -144 3 -114 3 -115 -276 -192 c-151 -106 -277 -192
-280 -192 -3 0 -5 52 -5 115 l0 114 53 39 c28 22 112 83 185 135 l133 96 -185
131 -186 132 0 120 0 119 73 -50 c39 -28 164 -115 277 -194z m-755 -432 c0
-499 0 -500 -22 -542 -32 -59 -87 -109 -141 -127 -30 -11 -82 -16 -154 -16
l-108 0 0 115 0 115 56 0 c103 0 94 -45 94 484 0 254 3 466 7 470 4 3 66 5
137 4 l131 -3 0 -500z"/>
</g>
</svg>
